<svg width="56" height="25" viewBox="0 0 56 25" fill="none" xmlns="http://www.w3.org/2000/svg">
<path fill-rule="evenodd" clip-rule="evenodd" d="M44.233 2.87661C44.233 1.5883 43.1887 0.543917 41.9003 0.543917C40.612 0.543917 39.5677 1.5883 39.5677 2.87661L39.5677 15.3798C39.5677 16.6681 40.612 17.7125 41.9003 17.7125C43.1887 17.7125 44.233 16.6681 44.233 15.3798V2.87661ZM43.7864 20.0113C44.4583 18.7611 44.8667 17.3482 44.9372 15.8469C44.9443 15.7751 44.9479 15.7023 44.9479 15.6287V15.4334L44.9481 15.3798L44.9479 15.3262L44.9479 12.2069C46.0443 11.2211 47.4946 10.6212 49.085 10.6212C52.5033 10.6212 55.2744 13.3923 55.2744 16.8106C55.2744 20.2289 52.5033 23 49.085 23C46.8381 23 44.8709 21.8027 43.7864 20.0113ZM46.939 16.8106C46.939 15.6253 47.8998 14.6645 49.085 14.6645C50.2703 14.6645 51.2311 15.6253 51.2311 16.8106C51.2311 17.9958 50.2703 18.9566 49.085 18.9566C47.8998 18.9566 46.939 17.9958 46.939 16.8106ZM38.5724 14.7421C38.5724 15.5581 37.911 16.2195 37.0951 16.2195C36.2791 16.2195 35.6177 15.5581 35.6177 14.7421C35.6177 13.9262 36.2791 13.2648 37.0951 13.2648C37.911 13.2648 38.5724 13.9262 38.5724 14.7421ZM49.8315 17.557C50.364 17.557 50.7957 17.1253 50.7957 16.5928C50.7957 16.0603 50.364 15.6287 49.8315 15.6287C49.299 15.6287 48.8673 16.0603 48.8673 16.5928C48.8673 17.1253 49.299 17.557 49.8315 17.557Z" fill="#2CB097"/>
<path d="M6.59878 3.49863C6.59878 1.86677 5.2759 0.543888 3.64404 0.543888C2.01219 0.543888 0.689304 1.86677 0.689304 3.49863H6.59878ZM24.6382 3.49863C24.6382 1.86677 23.3154 0.543888 21.6835 0.543888C20.0516 0.543888 18.7288 1.86677 18.7288 3.49863H24.6382ZM18.7288 12.5184C18.7288 15.868 16.0134 18.5833 12.6638 18.5833V24.4928C19.2771 24.4928 24.6382 19.1317 24.6382 12.5184H18.7288ZM12.6638 18.5833C9.31417 18.5833 6.59878 15.868 6.59878 12.5184H0.689304C0.689304 19.1317 6.05046 24.4928 12.6638 24.4928V18.5833ZM6.59878 12.5184V3.49863H0.689304V12.5184H6.59878ZM24.6382 12.5184V3.49863H18.7288V12.5184H24.6382Z" fill="#CA3769"/>
<circle cx="35.1197" cy="15.3797" r="6.78035" stroke="#2CB097" stroke-width="4.66538"/>
</svg>
