<svg width="143" height="147" viewBox="0 0 143 147" fill="none" xmlns="http://www.w3.org/2000/svg">
<path fill-rule="evenodd" clip-rule="evenodd" d="M102.011 5.4604C102.011 2.44471 99.5663 1.3182e-07 96.5506 0C93.5349 -1.3182e-07 91.0902 2.44471 91.0902 5.4604L91.0902 34.7282C91.0902 37.7439 93.5349 40.1886 96.5506 40.1886C99.5663 40.1886 102.011 37.7439 102.011 34.7282L102.011 5.4604ZM100.966 45.5698C102.539 42.6435 103.495 39.3364 103.66 35.8223C103.677 35.6541 103.685 35.4834 103.685 35.3107V34.8417L103.686 34.7282L103.685 34.6148V27.3007C106.252 24.9932 109.647 23.5891 113.369 23.5891C121.371 23.5891 127.858 30.0757 127.858 38.0773C127.858 46.079 121.371 52.5656 113.369 52.5656C108.11 52.5656 103.505 49.7631 100.966 45.5698ZM108.346 38.0773C108.346 35.3029 110.595 33.0538 113.369 33.0538C116.144 33.0538 118.393 35.3029 118.393 38.0773C118.393 40.8518 116.144 43.1009 113.369 43.1009C110.595 43.1009 108.346 40.8518 108.346 38.0773ZM88.7607 33.2357C88.7607 35.1456 87.2124 36.6939 85.3025 36.6939C83.3926 36.6939 81.8442 35.1456 81.8442 33.2357C81.8442 31.3257 83.3926 29.7774 85.3025 29.7774C87.2124 29.7774 88.7607 31.3257 88.7607 33.2357ZM115.116 39.8246C116.363 39.8246 117.373 38.8141 117.373 37.5676C117.373 36.3211 116.363 35.3107 115.116 35.3107C113.87 35.3107 112.859 36.3211 112.859 37.5676C112.859 38.8141 113.87 39.8246 115.116 39.8246Z" fill="white"/>
<path d="M13.9165 6.9165C13.9165 3.09662 10.8199 -7.15256e-06 7 -7.15256e-06C3.18012 -7.15256e-06 0.0834889 3.09662 0.0834889 6.9165H13.9165ZM56.1436 6.9165C56.1436 3.09662 53.047 -7.15256e-06 49.2271 -7.15256e-06C45.4072 -7.15256e-06 42.3106 3.09662 42.3106 6.9165H56.1436ZM42.3106 28.0301C42.3106 35.8709 35.9544 42.2271 28.1136 42.2271V56.0601C43.5941 56.0601 56.1436 43.5106 56.1436 28.0301H42.3106ZM28.1136 42.2271C20.2727 42.2271 13.9165 35.8709 13.9165 28.0301H0.0834889C0.0834889 43.5106 12.633 56.0601 28.1136 56.0601V42.2271ZM13.9165 28.0301V6.9165H0.0834889V28.0301H13.9165ZM56.1436 28.0301V6.9165H42.3106V28.0301H56.1436Z" fill="#2CB097"/>
<circle cx="80.6789" cy="34.7283" r="15.8716" stroke="white" stroke-width="10.9208"/>
<path d="M90.4095 116.066C80.8498 113.329 89.5247 103.456 95.9316 111.429L110.493 109.791C116.79 99.7799 123.707 105.896 118.919 112.57C120.212 111.111 124.275 107.602 126.692 110.191C128.912 112.57 126.328 115.542 124.188 116.81C134.081 114.632 133.645 123.133 126.328 123.133C133.463 123.733 134.955 135.236 122.906 133.197C128.002 144.082 116.39 143.973 114.591 136.969C115.734 148.596 99.4625 149.943 100.195 136.969C93.3104 146.448 85.9207 136.969 92.1457 131.013C84.111 137.991 77.7139 127.912 87.5045 123.546C85.2401 124.05 81.8801 122.671 81.8801 119.91C81.8802 116.688 86.2121 115.36 90.4095 116.066Z" fill="white"/>
<path d="M84.1006 59.9191C84.1006 65.5489 92.3178 112.521 99.2058 123.515C100.398 125.418 101.517 126.789 101.927 127.237C103.496 129.038 105.805 130.176 108.381 130.176C113.106 130.176 116.936 126.346 116.936 121.622C116.936 119.761 116.342 118.039 115.333 116.635C115.083 116.164 114.71 115.652 114.249 115.019C111.441 111.165 105.369 102.831 103.945 71.8841C99.4136 68.81 95.6571 67.0861 92.3074 65.5489C88.4139 63.7622 87.4727 63.0286 84.1006 59.9191Z" fill="#2CB097"/>
<mask id="mask0" mask-type="alpha" maskUnits="userSpaceOnUse" x="84" y="59" width="33" height="72">
<path d="M84.1006 59.9191C84.1006 65.5489 92.3178 112.521 99.2058 123.515C100.398 125.418 101.517 126.789 101.927 127.237C103.496 129.038 105.805 130.176 108.381 130.176C113.106 130.176 116.936 126.346 116.936 121.622C116.936 119.761 116.342 118.039 115.333 116.635C115.083 116.164 114.71 115.652 114.249 115.019C111.441 111.165 105.369 102.831 103.945 71.8841C99.4136 68.81 95.6571 67.0861 92.3074 65.5489C88.4139 63.7622 87.4727 63.0286 84.1006 59.9191Z" fill="#C4C4C4"/>
</mask>
<g mask="url(#mask0)">
<path d="M111.261 82.4449C92.5162 81.7538 85.9941 66.032 83.9425 60.3091L73.2527 53.0753L111.261 57.0706C117.92 66.7527 130.007 83.1359 111.261 82.4449Z" fill="black" fill-opacity="0.7"/>
</g>
<path d="M74.0378 57.7091C75.4374 60.4786 79.6492 63.084 85.0865 62.1725L85.0868 62.1728C95.1274 72.7247 108.163 73.534 115.735 73.2425C123.307 72.951 131.534 69.9296 134.228 68.8739C136.921 67.8182 142.913 64.2043 142.913 61.5701C142.913 58.936 139.826 58.6694 131.891 58.7673C127.129 58.826 120.987 57.5233 115.377 51.4851L115.353 51.46C109.749 45.4283 103.54 38.7457 95.0994 42.2924C93.0078 43.2698 91.3504 44.3796 89.72 45.4714C86.4826 47.6392 83.3514 49.7359 77.1373 50.5843C74.942 50.8129 74.0949 51.9103 73.5809 53.0751C73.0669 54.24 73.1287 56.1961 73.9791 57.6114L74.0378 57.7091Z" fill="#FD8A28"/>
<ellipse rx="1.96015" ry="2.81268" transform="matrix(0.945519 0.325568 -0.296315 0.955091 98.0507 50.0163)" fill="#050405"/>
<ellipse rx="1.65658" ry="2.23249" transform="matrix(0.848048 -0.529919 0.454113 0.890945 109.64 50.2099)" fill="#050405"/>
</svg>
