<svg width="116" height="124" viewBox="0 0 116 124" fill="none" xmlns="http://www.w3.org/2000/svg">
<path fill-rule="evenodd" clip-rule="evenodd" d="M82.8362 5.1131C82.8362 2.6743 80.8592 0.697266 78.4204 0.697266C75.9816 0.697266 74.0046 2.6743 74.0046 5.1131L74.0046 28.782C74.0046 31.2208 75.9816 33.1978 78.4204 33.1978C80.8592 33.1978 82.8362 31.2208 82.8362 28.782L82.8362 5.1131ZM81.9914 37.5499C83.2621 35.1858 84.0349 32.5143 84.1696 29.6756C84.1838 29.5367 84.191 29.3958 84.191 29.2531V22.7744C86.2662 20.9088 89.0113 19.7736 92.0215 19.7736C98.4924 19.7736 103.738 25.0193 103.738 31.4903C103.738 37.9612 98.4924 43.2069 92.0215 43.2069C87.7683 43.2069 84.0444 40.9407 81.9914 37.5499ZM87.9589 31.4903C87.9589 29.2466 89.7778 27.4277 92.0215 27.4277C94.2652 27.4277 96.0841 29.2466 96.0841 31.4903C96.0841 33.734 94.2652 35.5528 92.0215 35.5528C89.7778 35.5528 87.9589 33.734 87.9589 31.4903ZM72.1207 27.5749C72.1207 29.1195 70.8686 30.3716 69.324 30.3716C67.7795 30.3716 66.5273 29.1195 66.5273 27.5749C66.5273 26.0304 67.7795 24.7782 69.324 24.7782C70.8686 24.7782 72.1207 26.0304 72.1207 27.5749ZM93.4343 32.9034C94.4423 32.9034 95.2595 32.0862 95.2595 31.0782C95.2595 30.0702 94.4423 29.253 93.4343 29.253C92.4262 29.253 91.609 30.0702 91.609 31.0782C91.609 32.0862 92.4262 32.9034 93.4343 32.9034Z" fill="#2CB097"/>
<path d="M11.5934 6.29053C11.5934 3.20138 9.08914 0.697136 6 0.697136C2.91086 0.697136 0.406609 3.20138 0.406609 6.29053H11.5934ZM45.7425 6.29053C45.7425 3.20138 43.2383 0.697136 40.1491 0.697136C37.06 0.697136 34.5557 3.20138 34.5557 6.29053H45.7425ZM34.5557 23.3651C34.5557 29.706 29.4154 34.8463 23.0746 34.8463V46.033C35.5937 46.033 45.7425 35.8843 45.7425 23.3651H34.5557ZM23.0746 34.8463C16.7337 34.8463 11.5934 29.706 11.5934 23.3651H0.406609C0.406609 35.8843 10.5554 46.033 23.0746 46.033V34.8463ZM11.5934 23.3651V6.29053H0.406609V23.3651H11.5934ZM45.7425 23.3651V6.29053H34.5557V23.3651H45.7425Z" fill="#CA3769"/>
<circle cx="65.5844" cy="28.782" r="12.8354" stroke="#2CB097" stroke-width="8.83167"/>
<path d="M78.8499 88.3351C77.4336 86.9547 75.8242 86.1814 74.1774 86.0206C72.2051 85.8281 70.3799 86.5444 69.161 87.7902C67.9886 88.9884 67.2802 90.8244 67.8769 92.7286C67.869 92.7318 67.8611 92.7349 67.8532 92.7381C66.0381 93.468 64.2008 95.0541 64.2008 97.669C64.2008 99.3884 65.0342 100.686 66.0683 101.549C65.7563 101.968 65.4956 102.41 65.2886 102.87C64.4591 104.716 64.5782 106.727 65.5818 108.322C66.5857 109.918 68.3475 110.895 70.3689 110.936C70.4485 110.937 70.5283 110.938 70.6082 110.936C70.6487 112.627 71.2918 114.223 72.4717 115.402C73.8013 116.731 75.7284 117.388 77.8096 116.921C78.4587 116.775 79.0921 116.527 79.7061 116.185C80.0987 117.185 80.6476 118.067 81.3385 118.813C82.9859 120.592 85.2379 121.373 87.4162 121.277C89.5846 121.182 91.7396 120.219 93.2753 118.45C93.6996 117.962 94.0679 117.422 94.3736 116.836C95.7847 117.638 97.3974 117.954 98.8881 117.68C100.691 117.349 102.301 116.129 102.892 114.043C103.165 113.08 103.194 112.03 103.01 110.913C104.219 110.796 105.3 110.483 106.231 109.965C108.1 108.928 109.116 107.201 109.281 105.355C109.431 103.68 108.883 101.985 107.812 100.635C108.808 99.6495 109.372 98.338 109.195 96.7892C108.991 95.0213 107.766 93.6831 106.117 93.0287C105.958 92.9655 105.795 92.9083 105.627 92.857C105.781 92.3434 105.866 91.7786 105.831 91.1771C105.767 90.0773 105.313 89.0554 104.517 88.202L102.795 89.8088L104.517 88.202C103.568 87.1853 102.377 86.7253 101.175 86.7053C100.769 86.6986 100.376 86.7417 100.004 86.818C99.6965 85.4717 98.9191 84.2501 97.6452 83.5115C96.032 82.5762 94.1155 82.6968 92.3989 83.5557C90.9633 84.274 89.5963 85.5236 88.3482 87.2666L78.8499 88.3351Z" fill="white" stroke="#CA3769" stroke-width="4.71022"/>
<path d="M68.3518 49.1538C68.3518 53.7067 74.9971 91.693 80.5674 100.584C81.5317 102.123 82.4365 103.232 82.7683 103.594C84.0367 105.05 85.9046 105.971 87.9875 105.971C91.8083 105.971 94.9056 102.873 94.9056 99.0527C94.9056 97.5481 94.4253 96.1557 93.6096 95.0204C93.4074 94.639 93.1057 94.2248 92.7328 93.713C90.462 90.5963 85.5517 83.8567 84.4001 58.8299C80.7354 56.3439 77.6975 54.9498 74.9887 53.7067L74.9887 53.7067C71.84 52.2617 71.0788 51.6685 68.3518 49.1538Z" fill="#2CB097"/>
<mask id="mask0" mask-type="alpha" maskUnits="userSpaceOnUse" x="68" y="49" width="27" height="57">
<path d="M68.3518 49.1538C68.3518 53.7067 74.9971 91.693 80.5674 100.584C81.5317 102.123 82.4365 103.232 82.7683 103.594C84.0367 105.05 85.9046 105.971 87.9875 105.971C91.8083 105.971 94.9056 102.873 94.9056 99.0527C94.9056 97.5481 94.4253 96.1557 93.6096 95.0204C93.4074 94.639 93.1057 94.2248 92.7328 93.713C90.462 90.5963 85.5517 83.8567 84.4001 58.8299C80.7354 56.3439 77.6975 54.9498 74.9887 53.7067L74.9887 53.7067C71.84 52.2617 71.0788 51.6685 68.3518 49.1538Z" fill="#C4C4C4"/>
</mask>
<g mask="url(#mask0)">
<path d="M90.3168 67.3704C75.1576 66.8116 69.8831 54.0973 68.224 49.4692L59.5791 43.6193L90.3168 46.8502C95.7018 54.6802 105.476 67.9293 90.3168 67.3704Z" fill="black" fill-opacity="0.7"/>
</g>
<path d="M60.2135 47.3667C61.3453 49.6064 64.7514 51.7134 69.1486 50.9762L69.1488 50.9765C77.2687 59.5098 87.8107 60.1643 93.934 59.9286C100.057 59.6928 106.711 57.2494 108.889 56.3957C111.067 55.5419 115.913 52.6193 115.913 50.4891C115.913 48.3588 113.417 48.1433 106.999 48.2224C103.149 48.2699 98.1814 47.2164 93.6442 42.3333L93.6253 42.313C89.0931 37.4352 84.0716 32.0309 77.2461 34.8991C75.5545 35.6896 74.2142 36.5871 72.8957 37.47C70.2776 39.2231 67.7454 40.9187 62.72 41.6049C60.9447 41.7897 60.2596 42.6771 59.844 43.6192C59.4283 44.5612 59.4783 46.1431 60.166 47.2877L60.2135 47.3667Z" fill="#FD8A28"/>
<ellipse rx="1.58517" ry="2.27462" transform="matrix(0.945519 0.325568 -0.296315 0.955091 79.6332 41.1456)" fill="#050405"/>
<ellipse rx="1.33968" ry="1.80542" transform="matrix(0.848048 -0.529919 0.454113 0.890945 89.0051 41.302)" fill="#050405"/>
</svg>
