<?xml version="1.0" encoding="utf-8"?>
<!-- Generator: Adobe Illustrator 22.1.0, SVG Export Plug-In . SVG Version: 6.00 Build 0)  -->
<svg version="1.0" id="Layer_1" xmlns="http://www.w3.org/2000/svg" xmlns:xlink="http://www.w3.org/1999/xlink" x="0px" y="0px"
	 width="177" height="90px" viewBox="0 0 177 90" style="enable-background:new 0 0 177 90;" xml:space="preserve">
<style type="text/css">
	.st0{fill:#FF6600;}
	.st1{fill:#E74030;}
	.st2{fill:#FAB418;}
	.st3{fill:#DE0732;}
	.st4{fill:#DE0733;}
	.st5{fill:#CC1D46;}
	.st6{fill:#23282C;}
	.st7{opacity:0.5;enable-background:new    ;}
	.st8{fill:#F9B317;}
	.st9{fill:#22282C;}
</style>
<g>
	<g>
		<path class="st0" d="M42.2,23.2l-19-23c-0.4-0.4-1.1-0.2-1.1,0.4l1.6,22.3L9.9,11.1c-0.4-0.4-1.1,0-1,0.6l5.5,22L1.1,25.9
			c-0.5-0.3-1.1,0.2-0.9,0.8l23.3,52.6c0.2,0.5,1,0.4,1.1-0.1l5.1-27l13-22C44,28,43.8,25.2,42.2,23.2L42.2,23.2z"/>
		<path class="st1" d="M23.6,22.9L9.7,11.1c-0.4-0.4-1.1,0-1,0.6l5.5,22l10.5,6.2L23.6,22.9L23.6,22.9z"/>
		<path class="st2" d="M23.8,67.6c-0.2,0.6-1,0.5-1.1-0.1l-8.4-33.8L0.9,25.8C0.4,25.5-0.2,26,0,26.6l23.3,52.6
			c0.2,0.5,1,0.4,1.1-0.1l5.1-27l-0.1,0.1L23.8,67.6L23.8,67.6z"/>
		<path class="st3" d="M23.8,67.6l5.8-15.4L27,56.5c-0.3,0.5-1.1,0.3-1.1-0.3l-1.1-16.3l-10.5-6.2l8.4,33.8
			C22.8,68.1,23.6,68.2,23.8,67.6"/>
		<path class="st0" d="M42,23.2l-19-23c-0.3-0.4-1-0.1-1,0.4l1.6,22.3l9.6,8.3c1.9,1.6,2.6,4.3,1.7,6.7l-5.3,14v0.2l13-22
			C43.9,28,43.6,25.2,42,23.2"/>
		<path class="st4" d="M27.5,41.6c2.2,1.3,3.3,3.8,2.9,6.3L29.6,52l5.3-14c0.9-2.4,0.2-5-1.7-6.7L23.6,23l1.2,17L27.5,41.6
			L27.5,41.6z"/>
		<path d="M29.5,52.3l0.1-0.2v-0.2"/>
		<path d="M29.5,52.3l0.1-0.2v-0.2"/>
		<path class="st5" d="M27.5,41.6l-2.8-1.7l1.1,16.3c0,0.6,0.8,0.8,1.1,0.3l2.5-4.3l0.1-0.3l0.8-4.1C30.9,45.4,29.7,42.9,27.5,41.6"
			/>
		<path class="st6" d="M56.6,52.6H68l-5.7-15.2C62.3,37.3,56.6,52.6,56.6,52.6z M62,31.6h0.9c1.2,0,2.3,0.7,2.7,1.9L79,67.7h-4
			c-0.7,0-1.4-0.5-1.6-1.1L69.7,57H55l-3.6,9.6c-0.3,0.7-0.9,1.1-1.6,1.1h-3.9l13.3-34.2C59.7,32.4,60.8,31.6,62,31.6L62,31.6z"/>
		<path class="st6" d="M134,67.7h4.9v-36H134 M152.6,39.6v28.1h-4.5v-36h2.9c0.9,0,1.8,0.5,2.4,1.2l18.2,25.6V31.6h4.5v36.1h-2.2
			c-1,0-1.9-0.5-2.4-1.2L152.6,39.6L152.6,39.6z M116.3,67.7h-4.1l-9.7-29.2l-9.7,29.2h-4.1l-10.8-36h3.9c0.8,0,1.5,0.5,1.7,1.3
			L91,59.8l8.7-26.7c0.3-0.9,1.1-1.5,2.1-1.5h1.7c1,0,1.8,0.6,2.1,1.5l8.7,26.7l7.5-26.9c0.2-0.8,0.9-1.3,1.7-1.3h3.8L116.3,67.7
			L116.3,67.7z"/>
	</g>
	<g>
		<polygon class="st7" points="39,52.4 39.1,52.2 39.1,52 		"/>
		<polygon class="st7" points="39,52.4 39.1,52.2 39.1,52 		"/>
		<path class="st8" d="M385.7,2.9l3.1,6.3l7,1c2.8,0.4,3.4,2.3,1.4,4.3l-5,4.9l1.2,6.9c0.5,2.8-1.2,3.9-3.6,2.6l-6.2-3.3l-6.2,3.3
			c-2.5,1.3-4.1,0.1-3.6-2.6l1.2-6.9l-5-4.9c-2-1.9-1.4-3.9,1.4-4.3l7-1l3.1-6.3C382.4,0.4,384.5,0.4,385.7,2.9"/>
		<g>
			<path class="st9" d="M402.5,76.6h3.4c2.8,0,4.6,1.4,4.6,3.9c0,2.7-2,4.1-4.9,4.1h-1.7v5.8h-1.4V76.6z M405.8,77.8h-1.9v5.6h1.8
				c2.1,0,3.4-0.9,3.4-2.8C409.1,78.7,407.9,77.8,405.8,77.8z"/>
			<path class="st9" d="M418.7,90.4l-0.2-1.3c-0.9,0.8-2,1.5-3.3,1.5c-1.6,0-2.8-0.9-2.8-2.6c0-2.2,1.8-3.3,6.1-3.7v-0.6
				c0-1.3-0.8-1.8-2-1.8c-1.1,0-2.2,0.3-3.3,0.8l-0.2-1.2c1.1-0.5,2.2-0.8,3.5-0.8c2.1,0,3.2,1,3.2,2.9v6.8
				C419.7,90.4,418.7,90.4,418.7,90.4z M418.4,85.4c-3.7,0.4-4.8,1.3-4.8,2.6c0,1,0.7,1.5,1.7,1.5s2.1-0.6,3.1-1.4L418.4,85.4
				L418.4,85.4z"/>
			<path class="st9" d="M424.1,84.4v6h-1.3v-9.5h1l0.3,1.9c0.7-1.1,1.8-2.1,3.4-2.1l0.2,1.2C426.1,82.1,424.7,83.2,424.1,84.4z"/>
			<path class="st9" d="M432.7,90.6c-1.5,0-2.5-0.6-2.5-2.3V82h-1.5v-1.1h1.5v-3.3l1.3-0.2v3.5h2.2l0.2,1.1h-2.4v6
				c0,1,0.4,1.4,1.4,1.4c0.3,0,0.7-0.1,0.9-0.1l0.2,1.1C433.7,90.5,433.2,90.6,432.7,90.6z"/>
			<path class="st9" d="M444.7,90.6c-2.4,0-4.3-1.8-4.3-4.9s1.9-5,4.3-5c2.5,0,4.3,1.8,4.3,5C449,88.8,447.1,90.6,444.7,90.6z
				 M444.7,81.8c-1.8,0-2.9,1.4-2.9,3.8c0,2.3,1.2,3.8,2.9,3.8c1.8,0,2.9-1.4,2.9-3.8C447.6,83.3,446.5,81.8,444.7,81.8z"/>
			<path class="st9" d="M454.8,77.3c-0.9,0-1.4,0.4-1.4,1.5V81h1.9l0.2,1.1h-2.1v8.4h-1.3V82h-1.4v-1.1h1.4v-2.3
				c0-1.8,1-2.5,2.7-2.5c0.3,0,0.5,0,0.7,0l0.2,1.2C455.5,77.3,455.2,77.3,454.8,77.3z"/>
			<path class="st9" d="M470.6,85.9h-6l-1.7,4.5h-1.4l5.5-13.9h1.4l5.4,13.8l-1.4,0.3L470.6,85.9z M465,84.7h5.1l-2.6-6.6L465,84.7z
				"/>
			<path class="st9" d="M485.4,90.5h-1.2l-2.4-7.8l-2.3,7.8h-1.1l-3.1-9.5l1.3-0.2l2.4,8l2.4-7.8h1.2l2.4,7.8l2.3-7.8h1.3
				L485.4,90.5z"/>
			<path class="st9" d="M491.6,78.7c-0.5,0-1-0.4-1-1c0-0.5,0.4-1,1-1s0.9,0.4,0.9,1C492.5,78.2,492.1,78.7,491.6,78.7z M490.9,90.4
				v-9.5h1.3v9.5H490.9z"/>
			<path class="st9" d="M501.7,90.4v-6.5c0-1.2-0.6-2-1.8-2c-1,0-2,0.6-3.1,1.6v6.9h-1.3v-9.5h1l0.2,1.4c1-0.9,2.1-1.6,3.4-1.6
				c1.9,0,2.8,1.1,2.8,2.9v6.8C502.9,90.4,501.7,90.4,501.7,90.4z"/>
		</g>
		<g>
			<path class="st9" d="M244.2,67.2c-4.6,0-8.1-1-10.6-2.9c-2.2-1.8-3.5-4.3-3.8-7.5l-0.1-0.6h3c0.9,0,1.7,0.6,2,1.5
				c0.4,1.5,1.3,2.7,2.8,3.6c1.7,1,3.9,1.4,6.7,1.4c5.7,0,8.5-1.7,8.5-5.2c0-1.1-0.5-2-1.4-2.6c-1-0.7-2.4-1.3-3.9-1.8
				c-1.6-0.5-3.4-0.9-5.2-1.3c-1.9-0.4-3.7-1-5.4-1.6c-1.7-0.7-3.1-1.6-4.2-2.7c-1.2-1.2-1.8-2.8-1.8-4.7c0-2.8,1.1-5,3.2-6.8
				c2.1-1.7,5.2-2.6,9.4-2.6s7.5,1,9.8,2.9c2.1,1.7,3.3,4,3.4,6.7v0.5h-3.2c-0.8,0-1.5-0.6-1.8-1.3c-0.5-1.9-2-3.2-4.6-3.9
				c-1.1-0.3-2.4-0.5-4-0.5s-2.9,0.2-4,0.5c-1,0.3-1.9,0.8-2.4,1.3l0,0c-0.5,0.5-0.9,1-1.1,1.5c-0.2,0.6-0.3,1.2-0.3,1.9
				c0,0.6,0.3,1.1,0.8,1.6c0.6,0.6,1.4,1.1,2.3,1.4c1,0.4,2.2,0.8,3.5,1.1s2.7,0.7,4,1c1.4,0.3,2.7,0.7,4.1,1.2
				c1.4,0.4,2.6,1,3.7,1.7c2.4,1.5,3.7,3.7,3.7,6.4c0,3.2-1.2,5.6-3.6,7.3C251.5,66.4,248.3,67.2,244.2,67.2z"/>
		</g>
		<g>
			<path class="st9" d="M285.7,66.9h-2.8c-1,0-1.8-0.8-1.8-1.8V52.4c0-2.1-0.6-3.8-1.8-5c-1.2-1.2-2.7-1.8-4.5-1.8
				c-1.9,0-3.5,0.6-4.8,1.9c-1.3,1.3-2,2.9-2,5V67h-4.6V31.9h4.6v12.6c0.7-0.8,1.5-1.4,2.4-2c1.3-0.9,2.9-1.3,4.6-1.3
				s3.1,0.2,4.3,0.7c1.2,0.5,2.3,1.2,3.2,2.2c2.1,2.1,3.1,4.8,3.1,8.1L285.7,66.9L285.7,66.9z"/>
		</g>
		<g>
			<path class="st9" d="M303.4,67.2c-3.6,0-6.6-1.3-8.9-3.8c-2.2-2.5-3.3-5.6-3.3-9.2c0-3.6,1.1-6.7,3.3-9.2
				c2.3-2.5,5.4-3.8,9.1-3.8c3.3,0,5.9,1.1,7.9,3.4v-3h4.6v25.2h-4.6v-2.9C309.6,66.1,306.8,67.2,303.4,67.2z M303.9,45.5
				c-2.5,0-4.4,0.8-5.9,2.5c-1.4,1.6-2.1,3.7-2.1,6.2s0.7,4.5,2.1,6.2c1.5,1.7,3.5,2.5,5.9,2.5c2.5,0,4.4-0.8,5.8-2.5
				c1.4-1.6,2.1-3.7,2.1-6.2s-0.7-4.6-2.1-6.2C308.2,46.4,306.3,45.5,303.9,45.5z"/>
		</g>
		<g>
			<path class="st9" d="M328.2,66.9h-4.6V41.6h4.6v4.1c1-1.6,2.4-2.8,4.3-3.7c1.1-0.5,2.5-0.8,4.1-0.8h0.7v2.9
				c0,0.9-0.7,1.7-1.6,1.8c-2.6,0.4-3.9,1.1-5.3,2.9c-1.4,1.8-2.2,4.6-2.2,7.5V66.9z"/>
		</g>
		<g>
			<path class="st9" d="M352.5,67.2c-3.8,0-6.9-1.3-9.3-3.8c-2.3-2.4-3.5-5.5-3.5-9.2s1.1-6.8,3.3-9.2c2.4-2.5,5.4-3.8,9.2-3.8
				c3.7,0,6.8,1.3,9.2,3.8c2.2,2.4,3.3,5.5,3.3,9.2v2h-20.2c0.3,1.8,1.1,3.4,2.4,4.7c1.5,1.4,3.3,2.1,5.6,2.1c2.8,0,4.9-1.1,6.2-3.2
				c0.3-0.5,0.9-0.9,1.6-0.9h3.9l-0.3,0.7c-0.9,2.3-2.3,4.1-4.2,5.6C357.9,66.5,355.4,67.2,352.5,67.2z M344.6,51.8h15.3
				c-0.4-1.7-1.2-3.2-2.4-4.3c-1.4-1.3-3.2-1.9-5.3-1.9c-2.1,0-3.9,0.7-5.3,2C345.8,48.6,345,50.1,344.6,51.8z"/>
		</g>
		<g>
			<path class="st9" d="M400.1,66.9h-3.9c-0.7,0-1.4-0.4-1.7-1.1l-3.4-8.2h-15.2l-3.4,8.2c-0.3,0.7-1,1.1-1.7,1.1h-3.9l13.3-31.3
				c0.4-1.1,1.5-1.7,2.6-1.7h1.5c1.1,0,2.2,0.7,2.6,1.7L400.1,66.9z M377.7,53.2h11.6l-5.8-13.8L377.7,53.2z"/>
		</g>
		<g>
			<path class="st9" d="M417.1,67.2c-4.6,0-8.1-1-10.6-2.9c-2.2-1.8-3.5-4.3-3.8-7.5l-0.1-0.6h3c0.9,0,1.7,0.6,2,1.5
				c0.4,1.5,1.3,2.7,2.8,3.6c1.7,1,3.9,1.4,6.7,1.4c5.7,0,8.5-1.7,8.5-5.2c0-1.1-0.5-2-1.4-2.6c-1-0.7-2.4-1.3-3.9-1.8
				c-1.6-0.5-3.4-0.9-5.2-1.3c-1.9-0.4-3.7-1-5.4-1.6c-1.7-0.7-3.1-1.6-4.2-2.7c-1.2-1.2-1.8-2.8-1.8-4.7c0-2.8,1.1-5,3.2-6.8
				c2.1-1.7,5.2-2.6,9.4-2.6c4.2,0,7.5,1,9.8,2.9c2.1,1.7,3.3,4,3.4,6.7v0.5h-3.2c-0.8,0-1.5-0.6-1.8-1.3c-0.5-1.9-2-3.2-4.6-3.9
				c-1.1-0.3-2.4-0.5-4-0.5s-2.9,0.2-4,0.5c-1,0.3-1.9,0.8-2.4,1.3l0,0c-0.5,0.5-0.9,1-1.1,1.5c-0.2,0.6-0.3,1.2-0.3,1.9
				c0,0.6,0.3,1.1,0.8,1.6c0.6,0.6,1.4,1.1,2.3,1.4c1,0.4,2.2,0.8,3.5,1.1s2.7,0.7,4,1c1.4,0.3,2.7,0.7,4.1,1.2
				c1.4,0.4,2.6,1,3.7,1.7c2.4,1.5,3.7,3.7,3.7,6.4c0,3.2-1.2,5.6-3.6,7.3C424.4,66.4,421.2,67.2,417.1,67.2z"/>
		</g>
		<g>
			<path class="st9" d="M446.9,67.2c-3.6,0-6.6-1.3-8.9-3.8c-2.2-2.5-3.3-5.6-3.3-9.2c0-3.6,1.1-6.7,3.3-9.2
				c2.3-2.5,5.4-3.8,9.1-3.8c3.3,0,5.9,1.1,7.9,3.4v-3h4.6v25.2H455v-2.9C453.1,66.1,450.4,67.2,446.9,67.2z M447.4,45.5
				c-2.5,0-4.4,0.8-5.9,2.5c-1.4,1.6-2.1,3.7-2.1,6.2s0.7,4.5,2.1,6.2c1.5,1.7,3.5,2.5,5.9,2.5c2.5,0,4.4-0.8,5.8-2.5
				c1.4-1.6,2.1-3.7,2.1-6.2s-0.7-4.6-2.1-6.2C451.8,46.4,449.9,45.5,447.4,45.5z"/>
		</g>
		<g>
			<path class="st9" d="M471.8,66.9h-4.6v-35h4.6V66.9z"/>
		</g>
		<g>
			<path class="st9" d="M490.4,67.2c-3.8,0-6.9-1.3-9.3-3.8c-2.3-2.4-3.5-5.5-3.5-9.2s1.1-6.8,3.3-9.2c2.4-2.5,5.4-3.8,9.2-3.8
				c3.7,0,6.8,1.3,9.2,3.8c2.2,2.4,3.3,5.5,3.3,9.2v2h-20.2c0.3,1.9,1.1,3.4,2.4,4.6c1.4,1.4,3.3,2.1,5.6,2.1c2.8,0,4.9-1.1,6.2-3.2
				c0.3-0.5,0.9-0.9,1.6-0.9h3.9l-0.3,0.7c-0.9,2.3-2.3,4.1-4.2,5.6C495.8,66.5,493.4,67.2,490.4,67.2z M482.5,51.8h15.3
				c-0.4-1.7-1.2-3.2-2.4-4.3c-1.4-1.3-3.2-1.9-5.3-1.9c-2.1,0-3.9,0.7-5.3,1.9C483.7,48.6,482.9,50.1,482.5,51.8z"/>
		</g>
	</g>
</g>
</svg>
