<svg width="130" height="15" viewBox="0 0 130 15" fill="none" xmlns="http://www.w3.org/2000/svg">
<path d="M0.43821 14H2.41335V8.2919H7.97443V6.59801H2.41335V2.60938H8.55611V0.909091H0.43821V14ZM10.7086 14H12.6199V8.00426C12.6199 6.71946 13.6106 5.79261 14.9657 5.79261C15.362 5.79261 15.8095 5.86293 15.9629 5.90767V4.07955C15.7711 4.05398 15.394 4.0348 15.1511 4.0348C14.0005 4.0348 13.0162 4.68679 12.6582 5.74148H12.5559V4.18182H10.7086V14ZM21.4968 14.1982C23.6381 14.1982 25.1531 13.1435 25.5877 11.5455L23.7788 11.2195C23.4336 12.1463 22.6026 12.6193 21.516 12.6193C19.8796 12.6193 18.7802 11.5582 18.729 9.66619H25.7092V8.98864C25.7092 5.44105 23.587 4.05398 21.3626 4.05398C18.6268 4.05398 16.8242 6.13778 16.8242 9.15483C16.8242 12.2038 18.6012 14.1982 21.4968 14.1982ZM18.7354 8.23438C18.8121 6.84091 19.8221 5.63281 21.3754 5.63281C22.8583 5.63281 23.8299 6.73224 23.8363 8.23438H18.7354ZM27.8297 14H29.7409V4.18182H27.8297V14ZM28.7949 2.6669C29.4533 2.6669 30.003 2.15554 30.003 1.52912C30.003 0.902698 29.4533 0.384943 28.7949 0.384943C28.1301 0.384943 27.5868 0.902698 27.5868 1.52912C27.5868 2.15554 28.1301 2.6669 28.7949 2.6669ZM32.1076 14H39.989V12.3381H34.6964V12.2486L39.81 5.57528V4.18182H32.2802V5.84375H37.4258V5.93324L32.1076 12.6896V14ZM46.1941 14.1982C48.3354 14.1982 49.8503 13.1435 50.285 11.5455L48.476 11.2195C48.1309 12.1463 47.2999 12.6193 46.2132 12.6193C44.5769 12.6193 43.4775 11.5582 43.4263 9.66619H50.4064V8.98864C50.4064 5.44105 48.2843 4.05398 46.0598 4.05398C43.324 4.05398 41.5215 6.13778 41.5215 9.15483C41.5215 12.2038 43.2985 14.1982 46.1941 14.1982ZM43.4327 8.23438C43.5094 6.84091 44.5194 5.63281 46.0726 5.63281C47.5556 5.63281 48.5272 6.73224 48.5336 8.23438H43.4327ZM52.527 14H54.4382V4.18182H52.527V14ZM53.4922 2.6669C54.1506 2.6669 54.7003 2.15554 54.7003 1.52912C54.7003 0.902698 54.1506 0.384943 53.4922 0.384943C52.8274 0.384943 52.2841 0.902698 52.2841 1.52912C52.2841 2.15554 52.8274 2.6669 53.4922 2.6669ZM61.5925 4.18182H59.579V1.82955H57.6678V4.18182H56.2296V5.71591H57.6678V11.5135C57.6614 13.2969 59.0229 14.1598 60.5314 14.1278C61.1387 14.1214 61.5478 14.0064 61.7715 13.9233L61.4263 12.3445C61.2985 12.37 61.062 12.4276 60.7551 12.4276C60.1351 12.4276 59.579 12.223 59.579 11.1172V5.71591H61.5925V4.18182ZM73.1429 4.18182H71.0272V3.29972C71.0272 2.4304 71.3851 1.95739 72.3184 1.95739C72.7147 1.95739 72.9959 2.04688 73.1749 2.1044L73.6223 0.557528C73.3539 0.455255 72.7978 0.295454 72.0243 0.295454C70.4711 0.295454 69.1096 1.20312 69.1096 3.04403V4.18182H67.5946V5.71591H69.1096V14H71.0272V5.71591H73.1429V4.18182ZM81.3343 9.92827C81.3407 11.5966 80.1007 12.3892 79.0268 12.3892C77.8443 12.3892 77.0261 11.5327 77.0261 10.1967V4.18182H75.1149V10.4268C75.1149 12.8622 76.4508 14.1278 78.3365 14.1278C79.813 14.1278 80.8166 13.348 81.2704 12.2997H81.3727V14H83.252V4.18182H81.3343V9.92827ZM77.3201 2.64134C77.9593 2.64134 78.4451 2.12358 78.4451 1.52912C78.4451 0.896306 77.9593 0.410511 77.3201 0.410511C76.7193 0.410511 76.1887 0.896306 76.1887 1.52912C76.1887 2.12358 76.7193 2.64134 77.3201 2.64134ZM81.0787 2.64134C81.7179 2.64134 82.2037 2.12358 82.2037 1.52912C82.2037 0.896306 81.7179 0.410511 81.0787 0.410511C80.4778 0.410511 79.9473 0.896306 79.9473 1.52912C79.9473 2.12358 80.4778 2.64134 81.0787 2.64134ZM85.82 14H87.7312V8.00426C87.7312 6.71946 88.7219 5.79261 90.0771 5.79261C90.4734 5.79261 90.9208 5.86293 91.0742 5.90767V4.07955C90.8825 4.05398 90.5053 4.0348 90.2624 4.0348C89.1119 4.0348 88.1275 4.68679 87.7695 5.74148H87.6673V4.18182H85.82V14ZM100.349 14.2173C101.973 14.2173 102.887 13.3928 103.251 12.6577H103.328V14H105.194V7.48011C105.194 4.62287 102.944 4.05398 101.385 4.05398C99.6076 4.05398 97.9712 4.76989 97.332 6.55966L99.1282 6.96875C99.4094 6.27202 100.125 5.60085 101.41 5.60085C102.644 5.60085 103.277 6.24645 103.277 7.35866V7.40341C103.277 8.10014 102.561 8.08736 100.797 8.2919C98.9364 8.50923 97.0316 8.99503 97.0316 11.2259C97.0316 13.1562 98.4826 14.2173 100.349 14.2173ZM100.765 12.6832C99.6843 12.6832 98.9045 12.1974 98.9045 11.2514C98.9045 10.2287 99.8121 9.86435 100.918 9.71733C101.538 9.63423 103.008 9.46804 103.283 9.19318V10.4588C103.283 11.6222 102.356 12.6832 100.765 12.6832ZM109.651 0.909091H107.74V14H109.651V0.909091ZM114.134 0.909091H112.222V14H114.134V0.909091ZM120.936 14.1982C123.078 14.1982 124.593 13.1435 125.027 11.5455L123.218 11.2195C122.873 12.1463 122.042 12.6193 120.955 12.6193C119.319 12.6193 118.22 11.5582 118.169 9.66619H125.149V8.98864C125.149 5.44105 123.026 4.05398 120.802 4.05398C118.066 4.05398 116.264 6.13778 116.264 9.15483C116.264 12.2038 118.041 14.1982 120.936 14.1982ZM118.175 8.23438C118.252 6.84091 119.262 5.63281 120.815 5.63281C122.298 5.63281 123.269 6.73224 123.276 8.23438H118.175ZM128.528 14.1214C129.225 14.1214 129.807 13.5526 129.807 12.843C129.807 12.1463 129.225 11.571 128.528 11.571C127.825 11.571 127.25 12.1463 127.25 12.843C127.25 13.5526 127.825 14.1214 128.528 14.1214Z" fill="url(#paint0_linear)"/>
<defs>
<linearGradient id="paint0_linear" x1="-1" y1="-4" x2="132" y2="-4" gradientUnits="userSpaceOnUse">
<stop offset="0.0849126" stop-color="#2CB097"/>
<stop offset="0.525796" stop-color="#FD8A28"/>
<stop offset="0.90736" stop-color="#CA3769"/>
</linearGradient>
</defs>
</svg>
