<?xml version="1.0" encoding="UTF-8" standalone="no"?>
<svg xmlns="http://www.w3.org/2000/svg" viewBox="-3 4 32 32" width="32" height="32">
    <rect width="100%" height="100%" x="-3" y="4" fill="black"/>
    <path d="M9.87537 16.842V15.7233C9.49211 15.6721 9.10246 15.6401 8.70003 15.6401C3.90288 15.6338 0 19.5399 0 24.3475C0 27.2947 1.46917 29.9031 3.71764 31.4822C2.26763 29.9287 1.37974 27.8381 1.37974 25.5494C1.37974 20.8121 5.17403 16.9507 9.87537 16.842Z" fill="#60EBE6"/>
    <path d="M10.0862 29.5259C12.2261 29.5259 13.9763 27.819 14.053 25.6965L14.0594 6.72822H17.5215C17.4512 6.33824 17.4129 5.93548 17.4129 5.52632H12.686L12.6796 24.4946C12.603 26.6171 10.8527 28.324 8.71286 28.324C8.04854 28.324 7.42255 28.1578 6.86682 27.8637C7.58224 28.8674 8.75758 29.5259 10.0862 29.5259Z" fill="#60EBE6"/>
    <path d="M23.9923 13.166V12.1112C22.6701 12.1112 21.4436 11.7212 20.4088 11.0435C21.3286 12.0984 22.5742 12.8656 23.9923 13.166Z" fill="#60EBE6"/>
    <path d="M20.4088 11.0435C19.3995 9.88639 18.7927 8.37762 18.7927 6.72821H17.528C17.8537 8.53106 18.9269 10.0782 20.4088 11.0435Z" fill="#E53B4E"/>
    <path d="M8.70642 20.3646C6.51544 20.3646 4.73328 22.1483 4.73328 24.3411C4.73328 25.8691 5.602 27.1988 6.86676 27.8637C6.39408 27.2116 6.11302 26.4125 6.11302 25.543C6.11302 23.3502 7.89518 21.5665 10.0862 21.5665C10.495 21.5665 10.891 21.6368 11.2615 21.7519V16.9188C10.8782 16.8676 10.4886 16.8356 10.0862 16.8356C10.0159 16.8356 9.95202 16.842 9.88175 16.842V20.55C9.50488 20.4349 9.11523 20.3646 8.70642 20.3646Z" fill="#E53B4E"/>
    <path d="M23.9921 13.166V16.842C21.5392 16.842 19.2652 16.0557 17.4127 14.7259V24.3475C17.4127 29.1487 13.5099 33.0613 8.70631 33.0613C6.85388 33.0613 5.12921 32.4731 3.71753 31.4822C5.30806 33.1891 7.57569 34.2632 10.0861 34.2632C14.8832 34.2632 18.7925 30.357 18.7925 25.5494V15.9278C20.6449 17.2576 22.9189 18.0439 25.3718 18.0439V13.3131C24.8927 13.3131 24.4328 13.2619 23.9921 13.166Z" fill="#E53B4E"/>
    <path d="M17.4127 24.3475V14.7259C19.2652 16.0557 21.5392 16.842 23.9921 16.842V13.166C22.574 12.8656 21.3284 12.0984 20.4086 11.0435C18.9266 10.0782 17.8599 8.53106 17.5213 6.72821H14.0592L14.0528 25.6964C13.9762 27.8189 12.2259 29.5259 10.0861 29.5259C8.75742 29.5259 7.58847 28.8674 6.86028 27.8701C5.59551 27.1988 4.72679 25.8755 4.72679 24.3475C4.72679 22.1547 6.50895 20.371 8.69993 20.371C9.10874 20.371 9.50478 20.4413 9.87527 20.5564V16.8484C5.17393 16.9507 1.37964 20.8121 1.37964 25.5494C1.37964 27.8381 2.26753 29.9223 3.71753 31.4822C5.12921 32.4731 6.85389 33.0613 8.70632 33.0613C13.5035 33.0613 17.4127 29.1487 17.4127 24.3475Z" fill="white"/>
</svg>
